<svg xmlns="http://www.w3.org/2000/svg" viewBox="0 0 800 400">
<rect width="800" height="400" fill="white" />
<line x1="50" y1="350.0" x2="750" y2="350.0" stroke="#e5e7eb" stroke-width="1" />
<text x="40" y="354.0" font-family="monospace" font-size="12" text-anchor="end" fill="#6b7280">0.0</text>
<line x1="50" y1="283.3333333333333" x2="750" y2="283.3333333333333" stroke="#e5e7eb" stroke-width="1" />
<text x="40" y="287.3333333333333" font-family="monospace" font-size="12" text-anchor="end" fill="#6b7280">0.1</text>
<line x1="50" y1="216.66666666666666" x2="750" y2="216.66666666666666" stroke="#e5e7eb" stroke-width="1" />
<text x="40" y="220.66666666666666" font-family="monospace" font-size="12" text-anchor="end" fill="#6b7280">0.2</text>
<line x1="50" y1="149.99999999999997" x2="750" y2="149.99999999999997" stroke="#e5e7eb" stroke-width="1" />
<text x="40" y="153.99999999999997" font-family="monospace" font-size="12" text-anchor="end" fill="#6b7280">0.3</text>
<line x1="50" y1="83.33333333333331" x2="750" y2="83.33333333333331" stroke="#e5e7eb" stroke-width="1" />
<text x="40" y="87.33333333333331" font-family="monospace" font-size="12" text-anchor="end" fill="#6b7280">0.4</text>
<line x1="50.0" y1="50" x2="50.0" y2="350" stroke="#e5e7eb" stroke-dasharray="4" stroke-width="1" />
<text x="50.0" y="370" font-family="monospace" font-size="12" text-anchor="middle" fill="#6b7280">50</text>
<line x1="113.83492341529046" y1="50" x2="113.83492341529046" y2="350" stroke="#e5e7eb" stroke-dasharray="4" stroke-width="1" />
<text x="113.83492341529046" y="370" font-family="monospace" font-size="12" text-anchor="middle" fill="#6b7280">100</text>
<line x1="325.889948943527" y1="50" x2="325.889948943527" y2="350" stroke="#e5e7eb" stroke-dasharray="4" stroke-width="1" />
<text x="325.889948943527" y="370" font-family="monospace" font-size="12" text-anchor="middle" fill="#6b7280">1000</text>
<line x1="537.9449744717635" y1="50" x2="537.9449744717635" y2="350" stroke="#e5e7eb" stroke-dasharray="4" stroke-width="1" />
<text x="537.9449744717635" y="370" font-family="monospace" font-size="12" text-anchor="middle" fill="#6b7280">10000</text>
<line x1="750.0" y1="50" x2="750.0" y2="350" stroke="#e5e7eb" stroke-dasharray="4" stroke-width="1" />
<text x="750.0" y="370" font-family="monospace" font-size="12" text-anchor="middle" fill="#6b7280">100000</text>
<text x="400.0" y="390" font-family="sans-serif" font-size="14" text-anchor="middle" fill="#374151">Amplifier Cutoff Length N (Log Scale)</text>
<text x="15" y="200.0" font-family="sans-serif" font-size="14" text-anchor="middle" transform="rotate(-90 15 200.0)" fill="#374151">max|S(h)| / S(0)</text>
<text x="400.0" y="30" font-family="sans-serif" font-size="16" font-weight="bold" text-anchor="middle" fill="#111827">Decay of Off-Diagonal vs Diagonal Moment</text>
<path d="M 50.0,199.316 113.83492341529046,203.81933333333333 L 177.66984683058092,196.85066666666665 L 262.0550255282365,193.36266666666668 L 325.889948943527,197.37133333333333 L 389.72487235881744,220.42066666666668 L 474.110051056473,235.23000000000002 L 537.9449744717635,253.35200000000003 L 601.779897887054,275.348 L 686.1650765847095,298.326 L 750.0,309.3686666666667" fill="none" stroke="#3b82f6" stroke-width="2.5" />
<circle cx="50.0" cy="199.316" r="4" fill="#3b82f6" />
<circle cx="113.83492341529046" cy="203.81933333333333" r="4" fill="#3b82f6" />
<circle cx="177.66984683058092" cy="196.85066666666665" r="4" fill="#3b82f6" />
<circle cx="262.0550255282365" cy="193.36266666666668" r="4" fill="#3b82f6" />
<circle cx="325.889948943527" cy="197.37133333333333" r="4" fill="#3b82f6" />
<circle cx="389.72487235881744" cy="220.42066666666668" r="4" fill="#3b82f6" />
<circle cx="474.110051056473" cy="235.23000000000002" r="4" fill="#3b82f6" />
<circle cx="537.9449744717635" cy="253.35200000000003" r="4" fill="#3b82f6" />
<circle cx="601.779897887054" cy="275.348" r="4" fill="#3b82f6" />
<circle cx="686.1650765847095" cy="298.326" r="4" fill="#3b82f6" />
<circle cx="750.0" cy="309.3686666666667" r="4" fill="#3b82f6" />
<path d="M 50.0,91.93533333333329 113.83492341529046,109.56266666666667 L 177.66984683058092,142.35 L 262.0550255282365,186.60133333333332 L 325.889948943527,212.93866666666668 L 389.72487235881744,244.64999999999998 L 474.110051056473,280.09000000000003 L 537.9449744717635,301.66866666666664 L 601.779897887054,315.24133333333333 L 686.1650765847095,326.9746666666667 L 750.0,333.48533333333336" fill="none" stroke="#ef4444" stroke-width="2.5" />
<circle cx="50.0" cy="91.93533333333329" r="4" fill="#ef4444" />
<circle cx="113.83492341529046" cy="109.56266666666667" r="4" fill="#ef4444" />
<circle cx="177.66984683058092" cy="142.35" r="4" fill="#ef4444" />
<circle cx="262.0550255282365" cy="186.60133333333332" r="4" fill="#ef4444" />
<circle cx="325.889948943527" cy="212.93866666666668" r="4" fill="#ef4444" />
<circle cx="389.72487235881744" cy="244.64999999999998" r="4" fill="#ef4444" />
<circle cx="474.110051056473" cy="280.09000000000003" r="4" fill="#ef4444" />
<circle cx="537.9449744717635" cy="301.66866666666664" r="4" fill="#ef4444" />
<circle cx="601.779897887054" cy="315.24133333333333" r="4" fill="#ef4444" />
<circle cx="686.1650765847095" cy="326.9746666666667" r="4" fill="#ef4444" />
<circle cx="750.0" cy="333.48533333333336" r="4" fill="#ef4444" />
<path d="M 50.0,191.70466666666667 113.83492341529046,135.97266666666664 L 177.66984683058092,161.6846666666667 L 262.0550255282365,143.718 L 325.889948943527,184.22333333333333 L 389.72487235881744,192.7386666666667 L 474.110051056473,230.20133333333337 L 537.9449744717635,262.2866666666667 L 601.779897887054,282.7646666666667 L 686.1650765847095,306.0006666666667 L 750.0,320.334" fill="none" stroke="#f59e0b" stroke-width="2.5" />
<circle cx="50.0" cy="191.70466666666667" r="4" fill="#f59e0b" />
<circle cx="113.83492341529046" cy="135.97266666666664" r="4" fill="#f59e0b" />
<circle cx="177.66984683058092" cy="161.6846666666667" r="4" fill="#f59e0b" />
<circle cx="262.0550255282365" cy="143.718" r="4" fill="#f59e0b" />
<circle cx="325.889948943527" cy="184.22333333333333" r="4" fill="#f59e0b" />
<circle cx="389.72487235881744" cy="192.7386666666667" r="4" fill="#f59e0b" />
<circle cx="474.110051056473" cy="230.20133333333337" r="4" fill="#f59e0b" />
<circle cx="537.9449744717635" cy="262.2866666666667" r="4" fill="#f59e0b" />
<circle cx="601.779897887054" cy="282.7646666666667" r="4" fill="#f59e0b" />
<circle cx="686.1650765847095" cy="306.0006666666667" r="4" fill="#f59e0b" />
<circle cx="750.0" cy="320.334" r="4" fill="#f59e0b" />
<path d="M 50.0,151.98533333333333 113.83492341529046,182.78333333333333 L 177.66984683058092,178.24400000000003 L 262.0550255282365,221.27533333333332 L 325.889948943527,231.62133333333333 L 389.72487235881744,244.02800000000002 L 474.110051056473,276.8833333333333 L 537.9449744717635,295.76666666666665 L 601.779897887054,305.894 L 686.1650765847095,319.5846666666667 L 750.0,327.0613333333333" fill="none" stroke="#10b981" stroke-width="2.5" />
<circle cx="50.0" cy="151.98533333333333" r="4" fill="#10b981" />
<circle cx="113.83492341529046" cy="182.78333333333333" r="4" fill="#10b981" />
<circle cx="177.66984683058092" cy="178.24400000000003" r="4" fill="#10b981" />
<circle cx="262.0550255282365" cy="221.27533333333332" r="4" fill="#10b981" />
<circle cx="325.889948943527" cy="231.62133333333333" r="4" fill="#10b981" />
<circle cx="389.72487235881744" cy="244.02800000000002" r="4" fill="#10b981" />
<circle cx="474.110051056473" cy="276.8833333333333" r="4" fill="#10b981" />
<circle cx="537.9449744717635" cy="295.76666666666665" r="4" fill="#10b981" />
<circle cx="601.779897887054" cy="305.894" r="4" fill="#10b981" />
<circle cx="686.1650765847095" cy="319.5846666666667" r="4" fill="#10b981" />
<circle cx="750.0" cy="327.0613333333333" r="4" fill="#10b981" />
<line x1="600" y1="65" x2="620" y2="65" stroke="#3b82f6" stroke-width="2.5" />
<circle cx="610" cy="65" r="4" fill="#3b82f6" />
<text x="630" y="70" font-family="monospace" font-size="12" fill="#374151">Selberg</text>
<line x1="600" y1="85" x2="620" y2="85" stroke="#ef4444" stroke-width="2.5" />
<circle cx="610" cy="85" r="4" fill="#ef4444" />
<text x="630" y="90" font-family="monospace" font-size="12" fill="#374151">Sharp</text>
<line x1="600" y1="105" x2="620" y2="105" stroke="#f59e0b" stroke-width="2.5" />
<circle cx="610" cy="105" r="4" fill="#f59e0b" />
<text x="630" y="110" font-family="monospace" font-size="12" fill="#374151">SmoothQuad</text>
<line x1="600" y1="125" x2="620" y2="125" stroke="#10b981" stroke-width="2.5" />
<circle cx="610" cy="125" r="4" fill="#10b981" />
<text x="630" y="130" font-family="monospace" font-size="12" fill="#374151">Ramanujan</text>
</svg>